<svg width="128" height="128" viewBox="0 0 128 128" fill="none" xmlns="http://www.w3.org/2000/svg">
<g clip-path="url(#clip0_9_147)">
<rect width="128" height="128" rx="45" fill="white"/>
<path d="M48.3786 10.4967C45.7244 12.7757 44.8036 15.9557 43.9911 25.1247C43.6119 29.3647 43.1786 32.9157 43.0161 33.0747C42.8536 33.2337 41.5536 33.1277 40.0911 32.8097C35.8119 31.8557 31.2077 33.1807 30.0161 35.7247C29.5286 36.7317 29.6911 37.3147 30.6661 38.9577C31.6411 40.4947 32.9411 41.3427 36.4619 42.9857C49.5702 48.9747 66.3077 49.8227 79.5786 45.1587C84.7244 43.3567 87.8119 41.8727 94.2036 37.9507C100.054 34.3997 101.733 32.4387 100.108 31.1137C98.5911 29.8417 97.9952 29.5767 94.9077 29.0997C93.2286 28.8347 91.2244 28.8347 90.3036 29.0997C89.3827 29.3647 87.7577 29.6297 86.6744 29.7357L84.6702 29.8947L84.6161 21.6797C84.5619 13.0937 84.2369 11.7157 81.9077 9.91369C80.1202 8.48269 76.6536 8.74769 72.2119 10.6027C67.0661 12.8287 63.9786 12.8817 59.4827 10.9207C57.5869 10.0727 54.7702 9.27769 53.1994 9.11869C50.5994 8.85369 50.2202 8.95969 48.3786 10.4967ZM58.7786 12.1927C60.0244 12.9347 62.0286 13.4117 64.3036 13.6237C67.3369 13.8357 68.3119 13.6237 71.3452 12.4047C73.2411 11.5567 76.2202 10.8147 77.8994 10.7087C82.2869 10.3377 82.8827 11.3447 83.1536 19.6127L83.3161 25.8137L80.3911 26.8737C78.7661 27.4567 75.6244 28.2517 73.4036 28.5697C67.7161 29.4177 53.2536 30.1067 48.9744 29.7887L45.2911 29.4707V26.7677C45.3452 18.4997 47.2952 12.3517 50.2202 10.9207C52.2244 9.96669 55.9077 10.5497 58.7786 12.1927ZM83.0452 30.9547C82.7744 31.5377 76.7619 33.3397 75.0286 33.3397C74.6494 33.3397 74.5411 32.8097 74.7036 31.8027C74.9744 30.4777 74.8661 30.3187 73.9994 30.5307C73.1327 30.7427 73.0786 30.9547 73.6202 31.8027C74.4327 33.1277 73.7286 33.7107 70.9119 34.1877C68.7994 34.5057 68.6911 34.4527 68.9619 33.3927C69.1244 32.7037 69.0161 32.2797 68.6369 32.2797C68.2577 32.2797 68.1494 32.0147 68.3661 31.6967C68.5827 31.3257 68.4202 31.1667 68.0411 31.3257C66.9577 31.6437 66.7411 32.8097 67.7161 32.8097C68.6369 32.8097 68.9077 33.6047 68.0952 34.0817C67.8244 34.2937 67.4452 34.0817 67.3369 33.7637C67.1744 33.3397 67.0119 33.4457 67.0119 33.9757C66.9577 34.6117 66.5244 34.9297 65.7661 34.9297C64.8452 34.9297 64.7369 34.7707 65.2244 34.2937C66.3619 33.1807 65.9827 31.7497 64.5744 31.7497C62.8952 31.7497 62.3536 33.2337 63.4911 34.4527C64.4119 35.4067 64.2494 35.4597 60.2952 35.4597C56.1786 35.4597 55.2036 34.9827 57.0994 33.9227C57.8577 33.4457 57.8036 33.3927 56.5577 33.3397C55.4744 33.3397 55.1494 33.5517 55.3661 34.1347C55.5827 34.6117 55.3661 34.9297 54.8244 34.9297C53.4702 34.9297 53.7411 32.8627 55.2036 32.2797C56.0702 31.9617 56.1244 31.8027 55.4744 31.8027C54.1202 31.7497 52.7661 33.2867 53.1452 34.4527C53.4161 35.3007 53.1994 35.4597 51.9536 35.4597C51.1411 35.4597 49.1911 35.1417 47.6202 34.8237C44.9119 34.1877 44.7494 34.0817 44.7494 32.5447V30.9017L53.0911 31.1137C65.0619 31.4317 81.2036 29.3647 82.5036 27.3507C82.9911 26.6087 83.4244 29.8417 83.0452 30.9547ZM98.2119 31.3787C98.9161 31.6967 99.4036 32.1737 99.2952 32.4917C98.9702 33.4987 91.7119 38.0567 86.1869 40.7597C75.9494 45.7417 65.3869 47.7557 55.5286 46.5897C43.5577 45.2647 30.6661 39.9647 31.3161 36.6257C31.6411 34.9297 34.9452 33.7637 38.5202 34.1347C43.1786 34.6117 43.5036 34.6647 44.3161 35.3007C48.1077 38.2687 74.6494 36.4137 82.9369 32.5977C87.9202 30.3187 94.6369 29.7357 98.2119 31.3787Z" fill="black"/>
<path d="M70.0995 31.0077C69.6661 31.4317 70.262 33.3397 70.8036 33.3397C71.0745 33.3397 71.2911 32.8627 71.2911 32.3327C71.2911 31.7497 71.6161 31.1667 71.9953 31.0607C72.3203 30.9017 72.1578 30.7427 71.5078 30.7427C70.912 30.6897 70.262 30.8487 70.0995 31.0077Z" fill="black"/>
<path d="M59.1036 32.8097C58.8869 33.4457 58.9952 34.2407 59.3202 34.5587C59.7536 34.9827 59.9161 34.9297 59.9161 34.4527C59.9161 34.0817 60.2411 33.8697 60.6744 34.0287C61.1619 34.2407 61.5411 33.8697 61.7036 33.0217C61.9202 31.6967 61.3244 31.2727 60.6744 32.3327C60.4036 32.7567 60.1869 32.7567 59.9161 32.2797C59.6452 31.8027 59.3744 31.9617 59.1036 32.8097Z" fill="black"/>
<path d="M43.6119 50.7237C33.3744 55.9707 36.4619 70.8107 47.9994 71.9237C59.1036 72.9307 64.8994 59.2567 56.4494 51.9957C52.8744 48.9217 48.0536 48.4447 43.6119 50.7237ZM54.4994 52.6317C56.9369 54.1687 58.8327 57.7727 58.8327 60.6347C58.8327 66.9417 52.1702 71.8707 46.1577 69.9097C41.8244 68.5317 39.1702 65.0337 39.1702 60.6347C39.1702 52.8437 47.8369 48.3387 54.4994 52.6317Z" fill="black"/>
<path d="M48.3244 63.1257C47.1869 64.6627 47.1869 67.7367 48.2702 68.1077C50.2744 68.8497 53.9577 66.5707 53.9577 64.6097C53.9577 62.0657 49.841 60.9527 48.3244 63.1257Z" fill="black"/>
<path d="M75.6244 50.0877C66.1994 54.1157 66.2535 67.3127 75.7327 71.1817C83.6952 74.4677 92.9035 67.3657 91.6035 59.0447C90.5202 51.9427 82.2327 47.2787 75.6244 50.0877ZM84.0202 51.8367C86.9994 53.1617 88.6785 55.1227 89.4369 58.0907C91.7119 66.8357 82.1785 73.5667 74.541 68.6377C64.6827 62.2777 73.2952 46.9607 84.0202 51.8367Z" fill="black"/>
<path d="M76.2744 62.3307C73.0244 63.9207 73.7286 67.7897 77.3577 67.7897C80.3369 67.7897 82.1786 64.1857 80.1744 62.2777C79.1452 61.2177 78.4952 61.2177 76.2744 62.3307Z" fill="black"/>
<path d="M19.0744 59.2037C18.7494 59.7337 19.5619 66.9417 20.1036 68.4257C20.5911 69.6447 21.8911 70.0157 23.1911 69.3267C24.7077 68.5317 24.8702 68.9557 24.1661 71.4467C23.1911 74.9447 24.7619 76.7997 26.9827 74.8387C27.9577 73.9907 28.0119 74.0437 27.6327 76.0577C27.2536 78.6547 28.2286 79.7147 30.6661 79.2377C32.2911 78.9727 32.2911 78.9727 32.2911 81.2517C32.2911 83.7957 33.6452 85.5447 35.2161 84.9617C35.8661 84.6967 36.0827 84.9617 36.0827 85.9687C36.0827 86.9227 36.5161 87.4527 37.7077 87.9297C38.6286 88.3007 39.7661 89.3077 40.1994 90.1027C40.6327 90.9507 41.4452 91.8517 41.9869 92.1697C42.6369 92.4877 43.1786 93.5477 43.3952 94.7667C43.5577 95.9327 44.2077 97.2577 44.8036 97.7877C45.3452 98.2647 45.8327 99.0067 45.8327 99.4307C45.8327 99.8017 47.5119 101.763 49.5702 103.724C51.5744 105.685 53.6869 107.911 54.2286 108.706C54.7161 109.554 55.5286 110.19 55.9077 110.19C56.5577 110.19 56.6661 108.971 56.5036 103.141C56.3411 97.1517 56.1786 96.1447 55.4202 95.9857C54.8244 95.8797 54.4994 95.2967 54.4994 94.2897C54.4994 93.4417 54.2827 92.5937 53.9577 92.4347C53.6869 92.2757 53.4161 91.6397 53.4161 91.0567C53.4161 90.4737 53.0369 89.8907 52.6036 89.7317C52.0619 89.5197 51.8994 89.0427 52.0619 88.4067C52.2786 87.7707 52.0077 87.1877 51.3036 86.7637C50.5994 86.3397 50.1661 85.5447 50.1661 84.6967C50.1661 82.9477 49.1369 82.0467 47.6202 82.4177C46.4286 82.7357 46.2661 82.4707 45.5619 79.0257C45.2369 77.5947 44.9661 77.3297 43.6119 77.3297C42.1494 77.3297 42.0411 77.2237 42.0411 75.2097C42.0411 73.1427 41.2827 71.9237 39.1161 70.7047C38.6286 70.3867 37.8161 69.1147 37.3827 67.7897C36.4077 64.9807 35.9202 64.6097 33.3202 64.6097C30.9369 64.6097 30.2327 63.9207 30.0161 61.1647C29.8536 59.1507 29.7452 59.0447 28.2286 59.2037C25.4119 59.4687 23.9494 59.4157 21.6744 59.0447C20.3202 58.8327 19.2911 58.8857 19.0744 59.2037ZM24.2202 61.2707C25.3036 61.4297 26.7119 61.2707 27.3619 60.9527C28.3911 60.3697 28.4994 60.4757 28.4994 61.6417C28.4994 64.8217 29.7452 65.9347 33.5369 66.3057C34.8369 66.4647 35.2161 66.8357 35.8661 68.5847C36.2452 69.7507 37.4369 71.3937 38.5202 72.2947C40.0911 73.6197 40.4161 74.2557 40.4161 75.8987C40.4161 77.7007 40.6327 78.0187 41.9869 78.5487C43.0161 78.9197 43.7202 79.6087 43.9369 80.4567C44.5327 82.7887 45.7786 84.2197 47.1869 84.2197C48.2702 84.2197 48.5411 84.4847 48.5411 85.4917C48.5411 86.1807 48.9202 87.0287 49.3536 87.3997C49.7869 87.7707 50.1661 88.4597 50.1661 88.9897C50.1661 89.5197 50.5452 90.2087 50.9786 90.5797C51.4119 90.9507 51.7911 91.6927 51.7911 92.2227C51.7911 92.7527 52.0077 93.2827 52.2244 93.4417C52.9286 93.8657 52.3327 96.8337 51.4661 97.1517C50.8702 97.3637 50.7077 96.8867 50.7077 95.2967C50.7077 92.4877 48.4869 88.5127 45.7786 86.3397C44.5869 85.4387 42.9619 83.3187 42.0952 81.6227C41.2286 79.9797 39.4411 77.3297 38.1411 75.7927C36.8952 74.2027 35.0536 71.8177 34.1327 70.4397C33.1577 69.0617 31.5869 67.5777 30.6119 67.1007C29.5827 66.6237 28.0661 65.7757 27.1452 65.1397C26.2244 64.5567 24.6536 64.0797 23.5161 64.0797C21.4577 64.0797 20.3744 63.0727 20.3744 61.1647C20.3744 60.5287 20.6452 60.3697 21.3494 60.6347C21.8369 60.8467 23.1369 61.1117 24.2202 61.2707ZM27.8494 67.4187C29.6911 68.4257 31.4786 69.9627 32.5077 71.4467C33.4286 72.7187 35.2161 74.9447 36.5161 76.3757C37.7619 77.8067 39.5494 80.4037 40.4702 82.1527C41.3911 83.9547 43.2869 86.4457 44.7494 87.7707C46.2119 89.0427 47.7827 90.9507 48.2161 91.9047C49.2994 94.0777 49.4077 97.9997 48.3786 97.9997C47.2952 97.9997 45.5077 95.8267 45.0744 94.0777C44.6411 92.3287 39.5494 86.3397 38.4661 86.3397C38.0869 86.3397 37.7077 85.7037 37.5994 84.8557C37.4911 83.6897 37.1661 83.3717 35.7036 83.2657C34.0244 83.1067 33.9161 83.0007 33.9161 80.8807C33.9161 77.8597 33.3744 77.2237 31.1536 77.4357L29.3119 77.5947L29.4744 75.1037C29.6911 72.1357 28.6619 71.2877 26.8744 72.8247C25.4119 74.0967 25.1952 73.7787 25.9536 71.0757C26.4952 69.1677 26.4411 68.6907 25.6286 67.9487C24.9244 67.2067 24.4911 67.2067 23.4077 67.6837C22.2161 68.2137 21.9452 68.1607 21.4577 67.2597C20.6452 65.8287 20.6994 65.7757 22.9202 65.7757C24.1661 65.7757 26.0619 66.4117 27.8494 67.4187ZM53.9577 101.18C53.9577 104.784 53.3619 104.943 51.0327 101.975C49.2452 99.7487 49.2994 99.3777 51.1411 98.6887C53.7952 97.6287 53.9577 97.7877 53.9577 101.18Z" fill="black"/>
<path d="M58.1286 77.1177C57.9661 77.2767 57.9661 77.7537 58.1286 78.1777C58.5078 79.1847 61.5411 79.1847 61.5411 78.1777C61.5411 77.1177 58.9953 76.3227 58.1286 77.1177Z" fill="black"/>
<path d="M85.0494 78.1247C83.9119 79.8737 84.6161 80.9337 85.9702 79.5027C87.0536 78.3897 87.3244 76.7997 86.4577 76.7997C86.1869 76.7997 85.5369 77.3827 85.0494 78.1247Z" fill="black"/>
<path d="M54.8244 79.3437C53.6869 81.5167 54.5536 82.4707 55.9077 80.6687C56.9911 79.2377 57.0994 77.8597 56.0702 77.8597C55.8536 77.8597 55.2577 78.5487 54.8244 79.3437Z" fill="black"/>
<path d="M67.5536 79.1317C66.7952 79.9267 66.5786 80.5097 66.9036 80.7217C67.7161 81.2517 69.6661 79.8737 69.6661 78.8137C69.6661 77.5417 69.0161 77.6477 67.5536 79.1317Z" fill="black"/>
<path d="M71.1286 78.6017C70.8578 79.2907 72.8078 81.5697 73.6203 81.5697C74.3245 81.5697 73.9453 80.2447 72.9703 79.0257C71.7786 77.6477 71.5078 77.5947 71.1286 78.6017Z" fill="black"/>
<path d="M75.8952 78.9197C74.4327 80.5097 75.6244 81.5697 77.1952 80.0327C77.8452 79.3967 78.3327 78.6547 78.3327 78.3897C78.3327 77.4887 76.9244 77.8067 75.8952 78.9197Z" fill="black"/>
<path d="M79.687 78.8137C79.5245 79.2377 79.4703 79.6617 79.5245 79.6617C80.7703 80.3507 82.612 80.8807 82.8828 80.6687C83.587 79.9267 83.0995 79.1317 81.637 78.5487C80.337 78.0717 79.9578 78.1247 79.687 78.8137Z" fill="black"/>
<path d="M88.7327 78.8137C88.8411 79.3967 89.4369 79.7147 90.2494 79.7147C92.1994 79.7147 92.0369 78.1777 90.0869 78.0187C88.8952 77.9657 88.5702 78.1247 88.7327 78.8137Z" fill="black"/>
<path d="M62.4077 79.3967C62.2452 79.6087 62.7327 80.4037 63.4369 81.0397C64.5202 82.0467 64.9535 82.1527 65.4952 81.6227C65.9827 81.0927 65.8744 80.7747 64.791 79.9797C63.2744 78.8137 62.841 78.7077 62.4077 79.3967Z" fill="black"/>
<path d="M61.8119 86.9227C61.3244 87.6647 61.8119 88.0887 63.4369 88.2477C65.0078 88.4067 65.8203 87.5057 64.7369 86.8167C63.7078 86.1807 62.2453 86.2337 61.8119 86.9227Z" fill="black"/>
<path d="M84.0744 88.1947C83.0994 89.6257 82.9369 90.5797 83.6411 90.5797C84.2911 90.5797 85.9161 88.7777 85.9161 88.0357C85.9161 86.8697 84.9411 86.9227 84.0744 88.1947Z" fill="black"/>
<path d="M86.9994 87.6117C86.9994 87.9827 87.5952 88.7247 88.2994 89.2017C90.1411 90.3677 90.8994 89.2017 89.1661 87.8237C87.7036 86.6577 86.9994 86.6047 86.9994 87.6117Z" fill="black"/>
<path d="M92.5786 87.6117C91.3869 88.1417 91.0077 88.9897 91.6577 89.6257C92.1452 90.1027 95.1786 88.4067 94.9619 87.7707C94.6911 86.9757 93.9869 86.9227 92.5786 87.6117Z" fill="black"/>
<path d="M70.6952 88.4067C69.6661 89.2547 69.5577 89.5727 70.0452 90.1027C70.5869 90.6327 70.9661 90.5797 71.8327 89.7847C72.9161 88.7777 73.2952 87.3997 72.4286 87.3997C72.1577 87.3997 71.3994 87.8767 70.6952 88.4067Z" fill="black"/>
<path d="M78.3328 88.7247C78.3328 89.2547 78.9286 89.5197 80.2286 89.5197C81.5286 89.5197 82.1244 89.2547 82.1244 88.7247C82.1244 88.1947 81.5286 87.9297 80.2286 87.9297C78.9286 87.9297 78.3328 88.1947 78.3328 88.7247Z" fill="black"/>
<path d="M58.9411 89.0956C58.0745 89.9436 58.1286 91.6396 59.0495 91.6396C59.6995 91.6396 59.9161 91.2686 60.4036 89.2546C60.6203 88.4596 59.6995 88.3536 58.9411 89.0956Z" fill="black"/>
<path d="M73.9994 89.2547C73.9994 90.2617 76.6536 91.3747 77.3577 90.6857C77.6827 90.3677 77.4119 89.8377 76.6536 89.3077C75.0827 88.2477 73.9994 88.1947 73.9994 89.2547Z" fill="black"/>
<path d="M65.6036 89.4666C65.2786 90.0496 67.3369 91.6396 68.4203 91.6396C69.5578 91.6396 69.2328 90.7916 67.7703 89.8376C66.2536 88.8306 66.0369 88.8306 65.6036 89.4666Z" fill="black"/>
<path d="M91.9827 97.2577C92.1994 98.5297 95.1244 99.0067 95.1244 97.7877C95.1244 97.3107 94.7994 96.9397 94.3661 96.9397C93.9327 96.9397 93.1744 96.7807 92.6869 96.6217C91.9827 96.3567 91.8202 96.5157 91.9827 97.2577Z" fill="black"/>
<path d="M64.7911 97.6817C64.7911 98.1057 65.4953 98.5297 66.4161 98.6357C68.2578 98.9007 69.1786 98.1587 67.987 97.4167C66.7953 96.6747 64.7911 96.8337 64.7911 97.6817Z" fill="black"/>
<path d="M86.9994 98.5297C86.9994 99.2717 87.3244 99.3777 88.6786 99.1127C90.8994 98.6887 90.9536 97.7347 88.7869 97.6287C87.3786 97.5757 86.9994 97.7877 86.9994 98.5297Z" fill="black"/>
<path d="M83.5869 99.0597C82.0161 100.279 81.6911 101.18 82.8286 101.18C84.0203 101.127 85.9161 99.3777 85.4286 98.6357C85.1036 98.1057 84.6703 98.2117 83.5869 99.0597Z" fill="black"/>
<path d="M61.866 99.8547C60.8369 101.445 60.7827 101.71 61.7035 101.71C62.7327 101.71 64.4119 99.7487 63.9785 99.1127C63.4369 98.2117 62.841 98.4237 61.866 99.8547Z" fill="black"/>
<path d="M69.3953 99.0597C69.1786 99.3777 69.5578 100.279 70.262 100.968C71.3995 102.134 71.6161 102.187 72.1578 101.445C72.537 100.968 73.0245 100.65 73.2411 100.703C74.3245 100.862 76.1661 99.9607 76.1661 99.2717C76.1661 98.1587 74.3245 98.3707 73.187 99.5897L72.212 100.65L70.9661 99.5367C70.1536 98.7947 69.6661 98.6357 69.3953 99.0597Z" fill="black"/>
<path d="M77.6286 98.9007C76.8161 99.6957 77.3578 100.12 79.1453 100.12C80.4453 100.12 81.0411 99.8547 81.0411 99.3247C81.0411 98.5297 78.3328 98.1587 77.6286 98.9007Z" fill="black"/>
<path d="M61.3786 108.441C60.5661 109.236 61.1078 109.66 62.8953 109.66C64.1953 109.66 64.7911 109.395 64.7911 108.865C64.7911 108.07 62.0828 107.699 61.3786 108.441Z" fill="black"/>
<path d="M65.6036 110.243C65.1702 110.879 66.8494 112.84 67.8786 112.84C68.9077 112.84 68.7452 111.568 67.6077 110.561C66.4161 109.501 66.0911 109.448 65.6036 110.243Z" fill="black"/>
<path d="M71.1828 110.084C70.3161 110.19 69.6661 110.614 69.6661 111.038C69.6661 112.045 72.6995 112.045 73.0786 110.985C73.4578 110.031 73.0786 109.819 71.1828 110.084Z" fill="black"/>
<path d="M92.5786 110.031C92.1994 110.137 91.8744 110.773 91.8744 111.356C91.8744 111.992 92.1452 112.257 92.5786 112.098C92.9036 111.939 93.6619 111.621 94.2036 111.462C94.6911 111.25 95.1244 110.773 95.1244 110.402C95.1244 109.66 93.8786 109.501 92.5786 110.031Z" fill="black"/>
<path d="M58.6161 111.038C58.0744 112.469 58.2369 113.37 59.1036 113.37C59.5369 113.37 59.9161 113.211 59.9161 112.946C59.9161 112.734 60.0786 112.045 60.2411 111.356C60.6203 109.978 59.1578 109.66 58.6161 111.038Z" fill="black"/>
<path d="M87.2702 110.773C86.7827 111.515 87.3244 111.939 88.8952 112.151C89.8161 112.31 90.2494 112.098 90.2494 111.568C90.2494 110.349 87.9202 109.713 87.2702 110.773Z" fill="black"/>
<path d="M74.3785 111.462C74.1077 112.098 76.0035 113.37 77.2494 113.37C78.3327 113.37 77.7369 111.939 76.4369 111.356C74.7035 110.561 74.7035 110.561 74.3785 111.462Z" fill="black"/>
<path d="M79.5785 111.144C79.1994 111.356 79.091 111.833 79.3077 112.151C79.8494 112.946 82.666 112.363 82.666 111.462C82.666 110.667 80.6619 110.455 79.5785 111.144Z" fill="black"/>
<path d="M83.5868 112.098C82.991 112.734 84.291 114.43 85.3743 114.43C86.9993 114.43 87.1077 113.582 85.6452 112.628C84.1827 111.674 84.0743 111.674 83.5868 112.098Z" fill="black"/>
</g>
<defs>
<clipPath id="clip0_9_147">
<rect width="128" height="128" rx="45" fill="white"/>
</clipPath>
</defs>
</svg>
